<svg width="30" height="30" viewBox="0 0 43.1 10.808" xmlns="http://www.w3.org/2000/svg"><g id="svgGroup" stroke-linecap="round" fill-rule="evenodd" font-size="9pt" stroke="#c0c0c0" stroke-width="0.25mm" fill="#c0c0c0" style="stroke:#c0c0c0;stroke-width:0.25mm;fill:#c0c0c0"><path d="M 0 10.308 L 0 4.408 Q 2.3 2.408 5.1 1.158 Q 7.9 -0.092 11.1 0.008 A 18.841 18.841 0 0 1 15.863 0.598 A 17.438 17.438 0 0 1 16.6 0.808 Q 19.2 1.608 21.75 2.758 Q 24.3 3.908 26.85 4.758 Q 29.4 5.608 32 5.608 Q 35.2 5.608 37.95 4.258 Q 40.7 2.908 43.1 0.508 L 43.1 6.408 Q 40.7 8.408 37.9 9.608 Q 35.1 10.808 31.9 10.808 Q 28.1 10.808 24.65 9.408 Q 21.2 8.008 17.85 6.608 Q 14.5 5.208 10.9 5.208 Q 7.8 5.208 5.05 6.508 Q 2.3 7.808 0 10.308 Z" vector-effect="non-scaling-stroke"/></g></svg>